<mxfile host="65bd71144e">
    <diagram id="WPPkNyRcbFzH7AHk_LgD" name="创建空间流程">
        <mxGraphModel dx="1086" dy="689" grid="1" gridSize="10" guides="1" tooltips="1" connect="1" arrows="1" fold="1" page="1" pageScale="1" pageWidth="827" pageHeight="1169" background="#ffffff" math="0" shadow="0">
            <root>
                <mxCell id="0"/>
                <mxCell id="1" parent="0"/>
                <mxCell id="RCXph9JNE-Ri17qudRZ3-15" style="edgeStyle=none;html=1;" edge="1" parent="1" source="RCXph9JNE-Ri17qudRZ3-1" target="RCXph9JNE-Ri17qudRZ3-2">
                    <mxGeometry relative="1" as="geometry"/>
                </mxCell>
                <mxCell id="RCXph9JNE-Ri17qudRZ3-1" value="开始" style="strokeWidth=2;html=1;shape=mxgraph.flowchart.start_1;whiteSpace=wrap;" vertex="1" parent="1">
                    <mxGeometry x="370" y="150" width="100" height="60" as="geometry"/>
                </mxCell>
                <mxCell id="RCXph9JNE-Ri17qudRZ3-16" style="edgeStyle=none;html=1;" edge="1" parent="1" source="RCXph9JNE-Ri17qudRZ3-2" target="RCXph9JNE-Ri17qudRZ3-3">
                    <mxGeometry relative="1" as="geometry"/>
                </mxCell>
                <mxCell id="RCXph9JNE-Ri17qudRZ3-2" value="选择空间模板" style="rounded=1;whiteSpace=wrap;html=1;absoluteArcSize=1;arcSize=14;strokeWidth=2;" vertex="1" parent="1">
                    <mxGeometry x="348.5" y="240" width="143" height="60" as="geometry"/>
                </mxCell>
                <mxCell id="RCXph9JNE-Ri17qudRZ3-17" style="edgeStyle=none;html=1;" edge="1" parent="1" source="RCXph9JNE-Ri17qudRZ3-3" target="RCXph9JNE-Ri17qudRZ3-4">
                    <mxGeometry relative="1" as="geometry"/>
                </mxCell>
                <mxCell id="RCXph9JNE-Ri17qudRZ3-3" value="选择数据空间" style="rounded=1;whiteSpace=wrap;html=1;absoluteArcSize=1;arcSize=14;strokeWidth=2;" vertex="1" parent="1">
                    <mxGeometry x="348.5" y="340" width="143" height="60" as="geometry"/>
                </mxCell>
                <mxCell id="RCXph9JNE-Ri17qudRZ3-18" style="edgeStyle=none;html=1;" edge="1" parent="1" source="RCXph9JNE-Ri17qudRZ3-4" target="RCXph9JNE-Ri17qudRZ3-5">
                    <mxGeometry relative="1" as="geometry"/>
                </mxCell>
                <mxCell id="RCXph9JNE-Ri17qudRZ3-4" value="填写空间信息&lt;br&gt;（名称、描述）" style="rounded=1;whiteSpace=wrap;html=1;absoluteArcSize=1;arcSize=14;strokeWidth=2;" vertex="1" parent="1">
                    <mxGeometry x="348.5" y="430" width="143" height="60" as="geometry"/>
                </mxCell>
                <mxCell id="RCXph9JNE-Ri17qudRZ3-19" style="edgeStyle=none;html=1;" edge="1" parent="1" source="RCXph9JNE-Ri17qudRZ3-5" target="RCXph9JNE-Ri17qudRZ3-6">
                    <mxGeometry relative="1" as="geometry"/>
                </mxCell>
                <mxCell id="RCXph9JNE-Ri17qudRZ3-5" value="选择运行资源配置&lt;br&gt;（CPU内存磁盘）" style="rounded=1;whiteSpace=wrap;html=1;absoluteArcSize=1;arcSize=14;strokeWidth=2;" vertex="1" parent="1">
                    <mxGeometry x="348.5" y="520" width="143" height="60" as="geometry"/>
                </mxCell>
                <mxCell id="RCXph9JNE-Ri17qudRZ3-20" style="edgeStyle=none;html=1;entryX=0;entryY=0.5;entryDx=0;entryDy=0;dashed=1;" edge="1" parent="1" source="RCXph9JNE-Ri17qudRZ3-6" target="RCXph9JNE-Ri17qudRZ3-7">
                    <mxGeometry relative="1" as="geometry"/>
                </mxCell>
                <mxCell id="RCXph9JNE-Ri17qudRZ3-30" value="异步执行" style="edgeLabel;html=1;align=center;verticalAlign=middle;resizable=0;points=[];" vertex="1" connectable="0" parent="RCXph9JNE-Ri17qudRZ3-20">
                    <mxGeometry x="-0.3165" y="4" relative="1" as="geometry">
                        <mxPoint x="19" y="-6" as="offset"/>
                    </mxGeometry>
                </mxCell>
                <mxCell id="RCXph9JNE-Ri17qudRZ3-21" style="edgeStyle=none;html=1;" edge="1" parent="1" source="RCXph9JNE-Ri17qudRZ3-6" target="RCXph9JNE-Ri17qudRZ3-10">
                    <mxGeometry relative="1" as="geometry"/>
                </mxCell>
                <mxCell id="RCXph9JNE-Ri17qudRZ3-6" value="创建" style="rounded=1;whiteSpace=wrap;html=1;absoluteArcSize=1;arcSize=14;strokeWidth=2;" vertex="1" parent="1">
                    <mxGeometry x="348.5" y="610" width="143" height="60" as="geometry"/>
                </mxCell>
                <mxCell id="RCXph9JNE-Ri17qudRZ3-28" style="edgeStyle=none;html=1;entryX=1;entryY=0.5;entryDx=0;entryDy=0;dashed=1;" edge="1" parent="1" source="RCXph9JNE-Ri17qudRZ3-7" target="RCXph9JNE-Ri17qudRZ3-10">
                    <mxGeometry relative="1" as="geometry">
                        <Array as="points">
                            <mxPoint x="682" y="740"/>
                        </Array>
                    </mxGeometry>
                </mxCell>
                <mxCell id="RCXph9JNE-Ri17qudRZ3-29" value="异步反馈" style="edgeLabel;html=1;align=center;verticalAlign=middle;resizable=0;points=[];" vertex="1" connectable="0" parent="RCXph9JNE-Ri17qudRZ3-28">
                    <mxGeometry x="0.1747" y="-4" relative="1" as="geometry">
                        <mxPoint as="offset"/>
                    </mxGeometry>
                </mxCell>
                <mxCell id="RCXph9JNE-Ri17qudRZ3-7" value="系统后台执行创建任务" style="rounded=1;whiteSpace=wrap;html=1;absoluteArcSize=1;arcSize=14;strokeWidth=2;" vertex="1" parent="1">
                    <mxGeometry x="610" y="610" width="143" height="60" as="geometry"/>
                </mxCell>
                <mxCell id="RCXph9JNE-Ri17qudRZ3-9" value="结束" style="strokeWidth=2;html=1;shape=mxgraph.flowchart.terminator;whiteSpace=wrap;" vertex="1" parent="1">
                    <mxGeometry x="370" y="1150" width="100" height="60" as="geometry"/>
                </mxCell>
                <mxCell id="RCXph9JNE-Ri17qudRZ3-22" style="edgeStyle=none;html=1;" edge="1" parent="1" source="RCXph9JNE-Ri17qudRZ3-10" target="RCXph9JNE-Ri17qudRZ3-11">
                    <mxGeometry relative="1" as="geometry"/>
                </mxCell>
                <mxCell id="RCXph9JNE-Ri17qudRZ3-10" value="等待后台完成" style="rounded=1;whiteSpace=wrap;html=1;absoluteArcSize=1;arcSize=14;strokeWidth=2;" vertex="1" parent="1">
                    <mxGeometry x="348.5" y="710" width="143" height="60" as="geometry"/>
                </mxCell>
                <mxCell id="RCXph9JNE-Ri17qudRZ3-23" style="edgeStyle=none;html=1;" edge="1" parent="1" source="RCXph9JNE-Ri17qudRZ3-11" target="RCXph9JNE-Ri17qudRZ3-13">
                    <mxGeometry relative="1" as="geometry"/>
                </mxCell>
                <mxCell id="RCXph9JNE-Ri17qudRZ3-24" style="edgeStyle=none;html=1;" edge="1" parent="1" source="RCXph9JNE-Ri17qudRZ3-11" target="RCXph9JNE-Ri17qudRZ3-12">
                    <mxGeometry relative="1" as="geometry"/>
                </mxCell>
                <mxCell id="RCXph9JNE-Ri17qudRZ3-11" value="是否成功" style="strokeWidth=2;html=1;shape=mxgraph.flowchart.decision;whiteSpace=wrap;" vertex="1" parent="1">
                    <mxGeometry x="300" y="830" width="240" height="70" as="geometry"/>
                </mxCell>
                <mxCell id="RCXph9JNE-Ri17qudRZ3-26" style="edgeStyle=none;html=1;" edge="1" parent="1" source="RCXph9JNE-Ri17qudRZ3-12" target="RCXph9JNE-Ri17qudRZ3-9">
                    <mxGeometry relative="1" as="geometry"/>
                </mxCell>
                <mxCell id="RCXph9JNE-Ri17qudRZ3-12" value="显示WEB IDE入口、以及控制操作功能" style="rounded=1;whiteSpace=wrap;html=1;absoluteArcSize=1;arcSize=14;strokeWidth=2;" vertex="1" parent="1">
                    <mxGeometry x="348.5" y="980" width="143" height="60" as="geometry"/>
                </mxCell>
                <mxCell id="RCXph9JNE-Ri17qudRZ3-25" style="edgeStyle=none;html=1;" edge="1" parent="1" source="RCXph9JNE-Ri17qudRZ3-13" target="RCXph9JNE-Ri17qudRZ3-14">
                    <mxGeometry relative="1" as="geometry"/>
                </mxCell>
                <mxCell id="RCXph9JNE-Ri17qudRZ3-13" value="失败提示" style="rounded=1;whiteSpace=wrap;html=1;absoluteArcSize=1;arcSize=14;strokeWidth=2;" vertex="1" parent="1">
                    <mxGeometry x="620" y="835" width="143" height="60" as="geometry"/>
                </mxCell>
                <mxCell id="RCXph9JNE-Ri17qudRZ3-27" style="edgeStyle=none;html=1;" edge="1" parent="1" source="RCXph9JNE-Ri17qudRZ3-14" target="RCXph9JNE-Ri17qudRZ3-9">
                    <mxGeometry relative="1" as="geometry">
                        <Array as="points">
                            <mxPoint x="690" y="1180"/>
                        </Array>
                    </mxGeometry>
                </mxCell>
                <mxCell id="RCXph9JNE-Ri17qudRZ3-14" value="释放" style="rounded=1;whiteSpace=wrap;html=1;absoluteArcSize=1;arcSize=14;strokeWidth=2;" vertex="1" parent="1">
                    <mxGeometry x="620" y="980" width="143" height="60" as="geometry"/>
                </mxCell>
            </root>
        </mxGraphModel>
    </diagram>
    <diagram id="D0rB0ywiILBOyrz_oWe5" name="注册登录流程">
        <mxGraphModel dx="1358" dy="861" grid="1" gridSize="10" guides="1" tooltips="1" connect="1" arrows="1" fold="1" page="1" pageScale="1" pageWidth="827" pageHeight="1169" background="#ffffff" math="0" shadow="0">
            <root>
                <mxCell id="0"/>
                <mxCell id="1" parent="0"/>
                <mxCell id="mrGVOeqUPLOQ0efFedwk-10" style="edgeStyle=none;html=1;" edge="1" parent="1" source="mrGVOeqUPLOQ0efFedwk-1" target="mrGVOeqUPLOQ0efFedwk-4">
                    <mxGeometry relative="1" as="geometry"/>
                </mxCell>
                <mxCell id="mrGVOeqUPLOQ0efFedwk-1" value="开始" style="strokeWidth=2;html=1;shape=mxgraph.flowchart.start_1;whiteSpace=wrap;" vertex="1" parent="1">
                    <mxGeometry x="309" y="100" width="100" height="60" as="geometry"/>
                </mxCell>
                <mxCell id="mrGVOeqUPLOQ0efFedwk-21" style="edgeStyle=none;html=1;" edge="1" parent="1" source="mrGVOeqUPLOQ0efFedwk-3" target="mrGVOeqUPLOQ0efFedwk-12">
                    <mxGeometry relative="1" as="geometry"/>
                </mxCell>
                <mxCell id="mrGVOeqUPLOQ0efFedwk-3" value="微信扫码" style="rounded=1;whiteSpace=wrap;html=1;absoluteArcSize=1;arcSize=14;strokeWidth=2;" vertex="1" parent="1">
                    <mxGeometry x="304" y="360" width="110" height="60" as="geometry"/>
                </mxCell>
                <mxCell id="mrGVOeqUPLOQ0efFedwk-5" style="edgeStyle=none;html=1;entryX=0.5;entryY=0;entryDx=0;entryDy=0;" edge="1" parent="1" source="mrGVOeqUPLOQ0efFedwk-4" target="mrGVOeqUPLOQ0efFedwk-3">
                    <mxGeometry relative="1" as="geometry"/>
                </mxCell>
                <mxCell id="mrGVOeqUPLOQ0efFedwk-8" value="微信" style="edgeLabel;html=1;align=center;verticalAlign=middle;resizable=0;points=[];" vertex="1" connectable="0" parent="mrGVOeqUPLOQ0efFedwk-5">
                    <mxGeometry x="-0.3667" y="1" relative="1" as="geometry">
                        <mxPoint as="offset"/>
                    </mxGeometry>
                </mxCell>
                <mxCell id="mrGVOeqUPLOQ0efFedwk-7" style="edgeStyle=none;html=1;entryX=0.5;entryY=0;entryDx=0;entryDy=0;" edge="1" parent="1" source="mrGVOeqUPLOQ0efFedwk-4" target="mrGVOeqUPLOQ0efFedwk-6">
                    <mxGeometry relative="1" as="geometry">
                        <Array as="points">
                            <mxPoint x="695" y="270"/>
                        </Array>
                    </mxGeometry>
                </mxCell>
                <mxCell id="mrGVOeqUPLOQ0efFedwk-9" value="登录名密码登录" style="edgeLabel;html=1;align=center;verticalAlign=middle;resizable=0;points=[];" vertex="1" connectable="0" parent="mrGVOeqUPLOQ0efFedwk-7">
                    <mxGeometry x="0.3019" y="4" relative="1" as="geometry">
                        <mxPoint x="-38" y="-6" as="offset"/>
                    </mxGeometry>
                </mxCell>
                <mxCell id="mrGVOeqUPLOQ0efFedwk-4" value="选择登录方式" style="strokeWidth=2;html=1;shape=mxgraph.flowchart.decision;whiteSpace=wrap;" vertex="1" parent="1">
                    <mxGeometry x="268.5" y="230" width="181" height="70" as="geometry"/>
                </mxCell>
                <mxCell id="mrGVOeqUPLOQ0efFedwk-16" style="edgeStyle=none;html=1;" edge="1" parent="1" source="mrGVOeqUPLOQ0efFedwk-6" target="mrGVOeqUPLOQ0efFedwk-15">
                    <mxGeometry relative="1" as="geometry"/>
                </mxCell>
                <mxCell id="mrGVOeqUPLOQ0efFedwk-6" value="输入登录名、密码" style="rounded=1;whiteSpace=wrap;html=1;absoluteArcSize=1;arcSize=14;strokeWidth=2;" vertex="1" parent="1">
                    <mxGeometry x="640" y="360" width="110" height="60" as="geometry"/>
                </mxCell>
                <mxCell id="mrGVOeqUPLOQ0efFedwk-30" style="edgeStyle=none;html=1;" edge="1" parent="1" source="mrGVOeqUPLOQ0efFedwk-11" target="mrGVOeqUPLOQ0efFedwk-29">
                    <mxGeometry relative="1" as="geometry"/>
                </mxCell>
                <mxCell id="mrGVOeqUPLOQ0efFedwk-11" value="进入用户首页" style="rounded=1;whiteSpace=wrap;html=1;absoluteArcSize=1;arcSize=14;strokeWidth=2;" vertex="1" parent="1">
                    <mxGeometry x="640" y="585" width="110" height="60" as="geometry"/>
                </mxCell>
                <mxCell id="mrGVOeqUPLOQ0efFedwk-24" style="edgeStyle=none;html=1;entryX=0.5;entryY=0;entryDx=0;entryDy=0;" edge="1" parent="1" source="mrGVOeqUPLOQ0efFedwk-12" target="mrGVOeqUPLOQ0efFedwk-23">
                    <mxGeometry relative="1" as="geometry"/>
                </mxCell>
                <mxCell id="mrGVOeqUPLOQ0efFedwk-26" value="否" style="edgeLabel;html=1;align=center;verticalAlign=middle;resizable=0;points=[];" vertex="1" connectable="0" parent="mrGVOeqUPLOQ0efFedwk-24">
                    <mxGeometry x="-0.1827" relative="1" as="geometry">
                        <mxPoint as="offset"/>
                    </mxGeometry>
                </mxCell>
                <mxCell id="mrGVOeqUPLOQ0efFedwk-27" style="edgeStyle=none;html=1;" edge="1" parent="1" source="mrGVOeqUPLOQ0efFedwk-12" target="mrGVOeqUPLOQ0efFedwk-11">
                    <mxGeometry relative="1" as="geometry">
                        <Array as="points">
                            <mxPoint x="530" y="495"/>
                            <mxPoint x="530" y="610"/>
                        </Array>
                    </mxGeometry>
                </mxCell>
                <mxCell id="mrGVOeqUPLOQ0efFedwk-28" value="是" style="edgeLabel;html=1;align=center;verticalAlign=middle;resizable=0;points=[];" vertex="1" connectable="0" parent="mrGVOeqUPLOQ0efFedwk-27">
                    <mxGeometry x="-0.6841" y="1" relative="1" as="geometry">
                        <mxPoint as="offset"/>
                    </mxGeometry>
                </mxCell>
                <mxCell id="mrGVOeqUPLOQ0efFedwk-12" value="判断是否已注册" style="strokeWidth=2;html=1;shape=mxgraph.flowchart.decision;whiteSpace=wrap;" vertex="1" parent="1">
                    <mxGeometry x="268.5" y="460" width="181" height="70" as="geometry"/>
                </mxCell>
                <mxCell id="mrGVOeqUPLOQ0efFedwk-17" style="edgeStyle=none;html=1;" edge="1" parent="1" source="mrGVOeqUPLOQ0efFedwk-15" target="mrGVOeqUPLOQ0efFedwk-11">
                    <mxGeometry relative="1" as="geometry"/>
                </mxCell>
                <mxCell id="mrGVOeqUPLOQ0efFedwk-18" value="是" style="edgeLabel;html=1;align=center;verticalAlign=middle;resizable=0;points=[];" vertex="1" connectable="0" parent="mrGVOeqUPLOQ0efFedwk-17">
                    <mxGeometry x="-0.3039" y="2" relative="1" as="geometry">
                        <mxPoint as="offset"/>
                    </mxGeometry>
                </mxCell>
                <mxCell id="mrGVOeqUPLOQ0efFedwk-19" style="edgeStyle=none;html=1;" edge="1" parent="1" source="mrGVOeqUPLOQ0efFedwk-15" target="mrGVOeqUPLOQ0efFedwk-20">
                    <mxGeometry relative="1" as="geometry">
                        <mxPoint x="840" y="495" as="targetPoint"/>
                    </mxGeometry>
                </mxCell>
                <mxCell id="mrGVOeqUPLOQ0efFedwk-15" value="是否验证成功" style="strokeWidth=2;html=1;shape=mxgraph.flowchart.decision;whiteSpace=wrap;" vertex="1" parent="1">
                    <mxGeometry x="604.5" y="460" width="181" height="70" as="geometry"/>
                </mxCell>
                <mxCell id="mrGVOeqUPLOQ0efFedwk-31" style="edgeStyle=none;html=1;entryX=1;entryY=0.5;entryDx=0;entryDy=0;entryPerimeter=0;" edge="1" parent="1" source="mrGVOeqUPLOQ0efFedwk-20" target="mrGVOeqUPLOQ0efFedwk-29">
                    <mxGeometry relative="1" as="geometry">
                        <mxPoint x="895" y="760" as="targetPoint"/>
                        <Array as="points">
                            <mxPoint x="895" y="750"/>
                        </Array>
                    </mxGeometry>
                </mxCell>
                <mxCell id="mrGVOeqUPLOQ0efFedwk-20" value="提示错误信息" style="rounded=1;whiteSpace=wrap;html=1;absoluteArcSize=1;arcSize=14;strokeWidth=2;" vertex="1" parent="1">
                    <mxGeometry x="840" y="465" width="110" height="60" as="geometry"/>
                </mxCell>
                <mxCell id="mrGVOeqUPLOQ0efFedwk-25" style="edgeStyle=none;html=1;" edge="1" parent="1" source="mrGVOeqUPLOQ0efFedwk-23" target="mrGVOeqUPLOQ0efFedwk-11">
                    <mxGeometry relative="1" as="geometry"/>
                </mxCell>
                <mxCell id="mrGVOeqUPLOQ0efFedwk-23" value="自动注册" style="rounded=1;whiteSpace=wrap;html=1;absoluteArcSize=1;arcSize=14;strokeWidth=2;" vertex="1" parent="1">
                    <mxGeometry x="304" y="585" width="110" height="60" as="geometry"/>
                </mxCell>
                <mxCell id="mrGVOeqUPLOQ0efFedwk-29" value="结束" style="strokeWidth=2;html=1;shape=mxgraph.flowchart.terminator;whiteSpace=wrap;" vertex="1" parent="1">
                    <mxGeometry x="645" y="720" width="100" height="60" as="geometry"/>
                </mxCell>
            </root>
        </mxGraphModel>
    </diagram>
    <diagram id="vvSpAWgh_Ri54-TMD_iA" name="基本流程">
        <mxGraphModel dx="1086" dy="689" grid="1" gridSize="10" guides="1" tooltips="1" connect="1" arrows="1" fold="1" page="1" pageScale="1" pageWidth="827" pageHeight="1169" background="#ffffff" math="0" shadow="0">
            <root>
                <mxCell id="0"/>
                <mxCell id="1" parent="0"/>
                <mxCell id="14" style="edgeStyle=none;html=1;" edge="1" parent="1" source="7" target="8">
                    <mxGeometry relative="1" as="geometry"/>
                </mxCell>
                <mxCell id="7" value="开始" style="strokeWidth=2;html=1;shape=mxgraph.flowchart.start_1;whiteSpace=wrap;" vertex="1" parent="1">
                    <mxGeometry x="245" y="110" width="100" height="60" as="geometry"/>
                </mxCell>
                <mxCell id="15" style="edgeStyle=none;html=1;" edge="1" parent="1" source="8" target="9">
                    <mxGeometry relative="1" as="geometry"/>
                </mxCell>
                <mxCell id="8" value="登录" style="rounded=1;whiteSpace=wrap;html=1;absoluteArcSize=1;arcSize=14;strokeWidth=2;" vertex="1" parent="1">
                    <mxGeometry x="230" y="240" width="130" height="50" as="geometry"/>
                </mxCell>
                <mxCell id="16" style="edgeStyle=none;html=1;entryX=0.5;entryY=0;entryDx=0;entryDy=0;" edge="1" parent="1" source="9" target="10">
                    <mxGeometry relative="1" as="geometry"/>
                </mxCell>
                <mxCell id="9" value="选择模板" style="rounded=1;whiteSpace=wrap;html=1;absoluteArcSize=1;arcSize=14;strokeWidth=2;" vertex="1" parent="1">
                    <mxGeometry x="455" y="240" width="130" height="50" as="geometry"/>
                </mxCell>
                <mxCell id="17" style="edgeStyle=none;html=1;" edge="1" parent="1" source="10" target="11">
                    <mxGeometry relative="1" as="geometry"/>
                </mxCell>
                <mxCell id="10" value="创建空间" style="rounded=1;whiteSpace=wrap;html=1;absoluteArcSize=1;arcSize=14;strokeWidth=2;" vertex="1" parent="1">
                    <mxGeometry x="455" y="340" width="130" height="50" as="geometry"/>
                </mxCell>
                <mxCell id="18" style="edgeStyle=none;html=1;" edge="1" parent="1" source="11" target="12">
                    <mxGeometry relative="1" as="geometry"/>
                </mxCell>
                <mxCell id="11" value="打开IDE" style="rounded=1;whiteSpace=wrap;html=1;absoluteArcSize=1;arcSize=14;strokeWidth=2;" vertex="1" parent="1">
                    <mxGeometry x="455" y="440" width="130" height="50" as="geometry"/>
                </mxCell>
                <mxCell id="12" value="结束" style="strokeWidth=2;html=1;shape=mxgraph.flowchart.terminator;whiteSpace=wrap;" vertex="1" parent="1">
                    <mxGeometry x="470" y="545" width="100" height="60" as="geometry"/>
                </mxCell>
            </root>
        </mxGraphModel>
    </diagram>
    <diagram id="kd_a85So7bLFg3HMXfoR" name="第 4 页">
        <mxGraphModel dx="1086" dy="689" grid="1" gridSize="10" guides="1" tooltips="1" connect="1" arrows="1" fold="1" page="1" pageScale="1" pageWidth="827" pageHeight="1169" math="0" shadow="0">
            <root>
                <mxCell id="0"/>
                <mxCell id="1" parent="0"/>
            </root>
        </mxGraphModel>
    </diagram>
</mxfile>